<svg version="1.1" xmlns="http://www.w3.org/2000/svg" xmlns:xlink="http://www.w3.org/1999/xlink" width="163.57301" height="387.61398" viewBox="0,0,163.57301,387.61398"><g transform="translate(-493.44539,12.6469)"><g data-paper-data="{&quot;isPaintingLayer&quot;:true}" fill-rule="nonzero" stroke-linecap="butt" stroke-linejoin="miter" stroke-miterlimit="10" stroke-dasharray="" stroke-dashoffset="0" style="mix-blend-mode: normal"><path d="M498.69539,373.71707c-2.20914,0 -4,-1.79086 -4,-4v-377.11398c0,-2.20914 1.79086,-4 4,-4h153.07301c2.20914,0 4,1.79086 4,4v377.11398c0,2.20914 -1.79086,4 -4,4z" fill="none" stroke="#ffffff" stroke-width="2.5"/><path d="M498.69539,373.71707c-2.20914,0 -4,-1.79086 -4,-4v-377.11398c0,-2.20914 1.79086,-4 4,-4h153.07301c2.20914,0 4,1.79086 4,4v377.11398c0,2.20914 -1.79086,4 -4,4z" fill="#1f1f1f" stroke="none" stroke-width="0"/><path d="M656.4376,156.67456h-162.14971" fill="none" stroke="#ffffff" stroke-width="1.5"/></g></g></svg>